<?xml version="1.0" encoding="UTF-8" standalone="no"?>
<!-- Generator: Adobe Illustrator 19.1.0, SVG Export Plug-In . SVG Version: 6.00 Build 0)  -->

<svg
   xmlns:dc="http://purl.org/dc/elements/1.1/"
   xmlns:cc="http://creativecommons.org/ns#"
   xmlns:rdf="http://www.w3.org/1999/02/22-rdf-syntax-ns#"
   xmlns:svg="http://www.w3.org/2000/svg"
   xmlns="http://www.w3.org/2000/svg"
   xmlns:sodipodi="http://sodipodi.sourceforge.net/DTD/sodipodi-0.dtd"
   xmlns:inkscape="http://www.inkscape.org/namespaces/inkscape"
   version="1.1"
   x="0px"
   y="0px"
   viewBox="-258 223.8 3000 768.8783"
   xml:space="preserve"
   id="svg2"
   inkscape:version="0.91 r13725"
   sodipodi:docname="newsweek-logo.svg"
   width="3000"
   height="768.8783">
  <title
     id="title4289">Newsweek Logozz</title>
  <metadata
     id="metadata51">
    <rdf:RDF>
      <cc:Work
         rdf:about="">
        <dc:format>image/svg+xml</dc:format>
        <dc:type
           rdf:resource="http://purl.org/dc/dcmitype/StillImage" />
        <dc:title>Newsweek Logozz</dc:title>
      </cc:Work>
    </rdf:RDF>
  </metadata>
  <defs
     id="defs49">
    <rect
       x="26.090277"
       y="412.88818"
       width="2417.1839"
       height="366.46596"
       id="rect22" />
  </defs>
  <sodipodi:namedview
     pagecolor="#ffffff"
     bordercolor="#666666"
     borderopacity="1"
     objecttolerance="10"
     gridtolerance="10"
     guidetolerance="10"
     inkscape:pageopacity="0"
     inkscape:pageshadow="2"
     inkscape:window-width="1366"
     inkscape:window-height="715"
     id="namedview47"
     showgrid="false"
     inkscape:showpageshadow="false"
     fit-margin-top="0"
     fit-margin-right="0"
     fit-margin-bottom="0"
     fit-margin-left="0"
     inkscape:zoom="0.26933334"
     inkscape:cx="1500"
     inkscape:cy="384.43915"
     inkscape:window-x="-8"
     inkscape:window-y="-8"
     inkscape:window-maximized="1"
     inkscape:current-layer="svg2"
     inkscape:document-rotation="0" />
  <style
     type="text/css"
     id="style4">
	.st0{display:none;fill:#FF0500;}
	.st1{fill:#FFFFFF;}
	.st2{fill:#FF0500;}
	.st3{fill:none;}
	.st4{fill:#E5E5E5;}
	.st5{fill:#999999;}
</style>
  <rect
     id="Rectangle-7"
     x="-281.50006"
     y="801.67828"
     class="st0"
     width="275"
     height="60"
     style="display:none;fill:#800000" />
  <g
     id="g4285"
     transform="matrix(6.8207449,0,0,6.8207449,2378.3545,549.32311)">
    <path
       id="rect4270"
       d="M -387.12564,-47.282501 H 52.709015 V 65.443939 H -387.12564 Z"
       style="color:#000000;clip-rule:nonzero;display:inline;overflow:visible;visibility:visible;opacity:1;isolation:auto;mix-blend-mode:normal;color-interpolation:sRGB;color-interpolation-filters:linearRGB;solid-color:#000000;solid-opacity:1;fill:#ff0500;fill-opacity:1;fill-rule:evenodd;stroke:none;stroke-width:1.5;stroke-linecap:butt;stroke-linejoin:miter;stroke-miterlimit:4;stroke-dasharray:none;stroke-dashoffset:0;stroke-opacity:1;color-rendering:auto;image-rendering:auto;shape-rendering:auto;text-rendering:auto;enable-background:accumulate"
       inkscape:connector-curvature="0" />
    <path
       inkscape:connector-curvature="0"
       d="m -301.99951,-12.717064 h -4.99796 V 30.85896 h -9.37119 L -339.17188,1.1835313 V 21.175399 h 4.99796 v 9.683561 h -21.08517 v -9.683561 h 4.99797 v -33.892463 h -4.99797 v -9.68356 h 16.08721 l 21.24136,27.6450033 V -12.717064 h -4.99797 v -9.68356 h 21.08517 c -0.15619,0 -0.15619,9.68356 -0.15619,9.68356 z m 33.42391,24.833648 c 0,0.780932 0,1.561864 0,2.498983 h -23.27178 c -0.62475,7.496951 2.18661,9.683562 6.40364,9.683562 3.59229,0 6.24746,-2.342798 6.24746,-6.091273 h 9.99593 c -0.15619,6.559831 -3.59229,14.056782 -16.86814,14.056782 -13.11966,0 -19.21093,-9.527374 -19.21093,-20.148054 0,-9.5273745 6.24746,-19.6794944 19.05474,-19.6794944 12.18255,0 17.64908,8.5902553 17.64908,19.6794944 z m 57.47662,-9.5273745 h -3.43611 l -8.59025,28.8944965 h -11.40162 l -5.31033,-15.774834 -4.84178,15.774834 h -11.55781 l -9.52736,-28.8944965 h -3.43611 v -9.839747 h 20.14805 v 9.839747 h -4.99797 l 5.31035,15.3062735 6.8722,-25.1460205 h 6.24746 l 8.43407,25.1460205 4.52941,-15.3062735 h -4.99797 v -9.839747 h 16.86813 c -0.31236,0 -0.31236,9.839747 -0.31236,9.839747 z m 14.21296,0.3123729 c 0,1.4056782 1.09331,2.3427969 4.84179,3.4361022 l 5.46652,1.7180503 c 4.99797,1.718052 11.08924,5.3103411 11.08924,12.1825451 0,7.96551 -5.93508,11.870172 -13.43204,11.870172 -5.93508,0 -10.46449,-2.811356 -11.71398,-4.217035 v 3.279916 h -9.83975 V 17.739297 h 9.68356 c 0.31238,4.373221 4.21704,6.716018 7.65314,6.716018 2.81136,0 4.21703,-1.249492 4.21703,-2.65517 0,-1.718051 -1.0933,-2.811357 -5.93508,-4.373221 l -4.84179,-1.561865 c -4.84177,-1.561864 -10.3083,-5.154153 -10.3083,-11.7139849 0,-7.9655096 7.02839,-11.8701709 12.96348,-11.8701709 6.24745,0 9.215,1.7180511 10.77686,3.4361018 v -2.9675425 h 9.83975 V 4.77582 h -10.15212 c -0.15619,-3.2799158 -3.27991,-4.6855939 -6.55983,-4.6855939 -2.65517,0.1561864 -3.74848,1.2494916 -3.74848,2.8113563 z m 80.27985,-0.3123729 h -3.4361 l -8.59026,28.8944965 h -11.40161 l -5.31035,-15.774834 -4.84177,15.774834 h -11.5578 l -9.52738,-28.8944965 h -3.4361 v -9.839747 h 20.14806 v 9.839747 h -4.99797 l 5.31034,15.3062735 6.71601,-25.1460205 h 6.24746 l 8.43408,25.1460205 4.5294,-15.3062735 h -5.15415 v -9.839747 h 16.86814 z m 35.610515,9.5273745 c 0,0.780932 0,1.561864 0,2.498983 h -23.115595 c -0.62475,7.496951 2.18661,9.683562 6.403643,9.683562 3.592288,0 6.247458,-2.342798 6.247458,-6.091273 h 9.995934 c -0.156186,6.559831 -3.748475,14.056782 -16.868138,14.056782 -13.275847,0 -19.367117,-9.527374 -19.367117,-20.148054 0,-9.5273745 6.40364,-19.6794944 19.21093,-19.6794944 12.182544,0 17.492885,8.4340688 17.492885,19.6794944 z m 38.109496,-0.156186 c 0,0.780932 0,1.561864 0,2.498983 h -23.115596 c -0.624747,7.49695 2.186611,9.68356 6.403645,9.68356 3.592289,0 6.247458,-2.342796 6.247458,-6.091272 h 9.995934 c -0.156186,6.559832 -3.748475,14.056783 -16.868138,14.056783 -13.27585,0 -19.367122,-9.527375 -19.367122,-20.148054 0,-9.527375 6.403646,-19.6794948 19.210936,-19.6794948 12.182544,0 17.492883,8.4340687 17.492883,19.6794948 z M -0.87199974,31.32752 H -12.429798 l -12.026358,-15.774834 -3.904661,2.967543 v 3.123729 h 3.436102 v 9.839748 h -17.961444 v -9.683561 h 3.436103 v -34.361022 h -4.997967 v -9.839747 h 16.087206 V 8.5242949 l 8.121696,-5.9350854 h -4.997967 v -9.839747 h 21.3975455 v 9.839747 h -3.4361023 l -8.4340692,6.2474584 9.6835609,12.6511041 h 4.9979669 c 0.15618646,0.156186 0.15618646,9.839748 0.15618646,9.839748 z M -66.001755,8.2119229 h 12.651103 c 0,-5.4665269 -3.592288,-7.6531375 -6.091272,-7.6531375 -3.123729,0 -6.403645,2.4989835 -6.559831,7.6531375 z m -38.109495,0 h 12.651101 c 0,-5.4665269 -3.592289,-7.6531375 -6.247458,-7.6531375 -2.967543,0.1561865 -6.247463,2.6551699 -6.403643,7.6531375 z m -187.57995,0.156186 h 12.6511 c 0,-5.4665265 -3.59228,-7.653137 -6.24745,-7.653137 -3.12374,0 -6.24746,2.4989834 -6.40365,7.653137 z"
       style="fill:#ffffff"
       id="Logo-Copy" />
  </g>
  <text
     xml:space="preserve"
     id="text20"
     style="font-size:40px;line-height:1.25;font-family:Amethyst;-inkscape-font-specification:Amethyst;shape-inside:url(#rect22)"><tspan
       sodipodi:role="line"
       id="tspan24"></tspan></text>
</svg>
